<?xml version="1.0" encoding="utf-8"?>
<!-- Generator: Adobe Illustrator 20.1.0, SVG Export Plug-In . SVG Version: 6.00 Build 0)  -->
<svg version="1.1" id="Layer_1" xmlns="http://www.w3.org/2000/svg" xmlns:xlink="http://www.w3.org/1999/xlink" x="0px" y="0px"
	 viewBox="0 0 512 512" style="enable-background:new 0 0 512 512;" xml:space="preserve">
<style type="text/css">
	.st0{fill:#010202;}
</style>
<g>
	<path class="st0" d="M256,15c32.5,0,64.1,6.4,93.8,18.9c28.7,12.1,54.5,29.5,76.6,51.7s39.5,47.9,51.7,76.6
		c12.6,29.7,18.9,61.3,18.9,93.8s-6.4,64.1-18.9,93.8c-12.1,28.7-29.5,54.5-51.7,76.6s-47.9,39.5-76.6,51.7
		C320.1,490.6,288.5,497,256,497s-64.1-6.4-93.8-18.9c-28.7-12.1-54.5-29.5-76.6-51.7s-39.5-47.9-51.7-76.6
		C21.4,320.1,15,288.5,15,256s6.4-64.1,18.9-93.8c12.1-28.7,29.5-54.5,51.7-76.6s47.9-39.5,76.6-51.7C191.9,21.4,223.5,15,256,15
		 M256,0C114.6,0,0,114.6,0,256s114.6,256,256,256s256-114.6,256-256S397.4,0,256,0L256,0z"/>
</g>
<g>
	<path class="st0" d="M430.9,138.7l-160.1-93c-8.2-4.7-21.5-4.7-29.7,0L81,138.7c-8.1,4.7-14.8,16.3-14.8,25.8v186
		c0,9.4,6.6,21.1,14.8,25.8l160.1,93c8.2,4.7,21.5,4.7,29.7,0l160.1-93c8.2-4.8,14.9-16.4,14.8-25.8v-186
		C445.7,155.1,439.1,143.4,430.9,138.7z M281.3,373.5l-7.3-52.3h-37l-7.9,52.3h-36.3l39.3-240.9h48.1l39.1,240.9H281.3z"/>
	<polygon class="st0" points="254.7,186.5 241.5,287.1 269.4,287.1 256.9,186.5 	"/>
</g>
</svg>
